<svg width="60" height="60" viewBox="0 0 60 60" fill="none" xmlns="http://www.w3.org/2000/svg">
<g clip-path="url(#clip0_984_66)">
<path d="M30 57.6562C45.2344 57.6562 57.6562 45.2344 57.6562 30C57.6562 22.5937 54.7969 15.6562 49.5469 10.4531C44.3437 5.20312 37.4063 2.34375 30 2.34375C14.7656 2.34375 2.34375 14.7188 2.34375 30C2.34375 34.875 3.60937 39.6094 6.04687 43.8281L3.42188 53.4844C2.85938 55.5469 4.73438 57.4688 6.84375 56.9063L16.8281 54.2813C20.8125 56.4844 25.3594 57.6562 30 57.6562Z" fill="white"/>
<path d="M30 52.0312C26.3437 52.0312 22.6875 51.0938 19.4531 49.3594C18.6094 48.8906 17.6719 48.6563 16.7812 48.6563C16.3125 48.6563 15.8437 48.7031 15.375 48.8437L10.125 50.2031L11.4844 45.2812C11.8594 43.8281 11.6719 42.2813 10.9219 40.9688C8.95312 37.6406 7.96875 33.8437 7.96875 30C7.96875 17.8125 17.8594 7.96875 30 7.96875C35.9063 7.96875 41.4375 10.2656 45.6094 14.4375C49.7344 18.5625 52.0312 24.0937 52.0312 30C52.0312 42.1406 42.1406 52.0312 30 52.0312Z" fill="#4DD2CC"/>
<path d="M50.5781 9.46875C45.0938 3.98438 37.7813 0.9375 30 0.9375C13.9687 0.9375 0.9375 13.9687 0.9375 30C0.9375 34.9219 2.15625 39.75 4.54687 44.0156L2.0625 53.1094C1.64063 54.5625 2.0625 56.0625 3.14062 57.1406C4.21875 58.2188 5.71875 58.6406 7.17188 58.2656L16.6406 55.7812C20.7656 57.9375 25.3594 59.0625 30.0469 59.0625C46.0781 59.0625 59.1094 46.0313 59.1094 30C59.0625 22.2656 56.0625 14.9531 50.5781 9.46875ZM30 56.25C25.6406 56.25 21.2813 55.125 17.4375 53.0625C17.25 52.9687 17.0156 52.875 16.7812 52.875C16.6406 52.875 16.5469 52.875 16.4062 52.9219L6.42187 55.5469C5.71875 55.7344 5.25 55.3594 5.0625 55.1719C4.875 54.9844 4.5 54.5156 4.6875 53.8125L7.3125 44.1562C7.40625 43.7812 7.35938 43.4063 7.17188 43.0781C4.92188 39.1406 3.75 34.5938 3.75 30C3.75 15.5156 15.5156 3.75 30 3.75C37.0312 3.75 43.6406 6.46875 48.5625 11.4375C53.5312 16.4062 56.2969 23.0156 56.25 30C56.25 44.4844 44.4844 56.25 30 56.25Z" fill="#444B54"/>
<path d="M43.5469 39.8906C42.9844 41.4844 40.1719 43.0781 38.8594 43.1719C37.5938 43.2656 36.4219 43.7344 30.5625 41.4375C23.5312 38.6719 19.0781 31.4531 18.75 30.9844C18.4219 30.5156 15.9375 27.2344 15.9375 23.8125C15.9375 20.3906 17.7188 18.75 18.375 18.0469C19.0313 17.3437 19.7344 17.2031 20.2031 17.2031C20.6719 17.2031 21.1406 17.2031 21.5156 17.2031C22.0313 17.2031 22.5469 17.25 23.0625 18.375C23.6719 19.7344 25.0313 23.1562 25.1719 23.4844C25.3594 23.8125 25.4531 24.2344 25.2188 24.7031C24.9844 25.1719 24.8906 25.4531 24.5156 25.875C24.1875 26.2969 23.7656 26.7656 23.4844 27.0937C23.1562 27.4219 22.7813 27.7969 23.2031 28.5C23.625 29.2031 24.9844 31.4531 27.0469 33.2813C29.6719 35.625 31.9219 36.375 32.625 36.7031C33.3281 37.0313 33.7031 36.9844 34.125 36.5156C34.5469 36.0469 35.8594 34.5 36.3281 33.7969C36.7969 33.0937 37.2656 33.2344 37.875 33.4688C38.5313 33.7031 41.9063 35.3906 42.6094 35.7187C43.3125 36.0469 43.7813 36.2344 43.9219 36.5156C44.1094 36.8906 44.1094 38.25 43.5469 39.8906Z" fill="#006475"/>
</g>
<defs>
<clipPath id="clip0_984_66">
<rect width="60" height="60" fill="white"/>
</clipPath>
</defs>
</svg>
