<svg width="65" height="65" viewBox="0 0 65 65" fill="none" xmlns="http://www.w3.org/2000/svg">
<rect width="65" height="65" rx="10" fill="#00A995" fill-opacity="0.1"/>
<path d="M49.7266 41.7285V16.2988H15.2734V41.7285H30.4492V45.6934H25.2539V48.7012H39.7461V45.6934H34.5508V41.7285H49.7266ZM17.5977 18.623H47.2656V39.2676H17.5977V18.623ZM38.1581 34.1816C38.176 34.3428 38.1581 34.5337 38.1163 34.7128L36.5945 33.3103L35.2218 34.8084L36.7615 36.2048C36.5824 36.2646 36.4095 36.3062 36.2304 36.3062C35.6992 36.3242 35.2456 36.163 34.8577 35.8109C34.4698 35.441 34.2609 35.0112 34.243 34.4801C34.243 34.2951 34.2609 34.0862 34.3028 33.9071L33.9328 33.5551L31.7187 31.5319L27.9708 35.6618C27.744 35.9661 27.3919 36.175 26.986 36.175C26.3295 36.175 25.7983 35.6438 25.7983 34.9873C25.7983 34.6353 25.9356 34.3129 26.2041 34.0862L30.0953 30.0518L27.744 27.8974C27.559 27.9809 27.3501 28.0227 27.171 28.0227C26.6398 28.0406 26.1862 27.8795 25.7983 27.5274C25.4104 27.1754 25.2015 26.7456 25.1836 26.2145C25.1657 26.0533 25.1836 25.8624 25.2255 25.6833L26.7652 27.0798L28.126 25.5878L26.5862 24.1913C26.7474 24.1316 26.9383 24.0899 27.1174 24.0899C27.6485 24.072 28.1022 24.2332 28.49 24.5852C28.8779 24.9314 29.0868 25.3849 29.1047 25.916C29.1226 26.0951 29.1047 26.2681 29.0629 26.4472L31.486 28.6672L33.2585 26.7515L30.6088 24.418L33.0139 21.6787L39.8235 27.6705L37.4183 30.4098L34.6969 28.0107L32.9841 30.0339L35.6459 32.4688C35.825 32.4091 35.9979 32.3674 36.1771 32.3674C36.7082 32.3495 37.1618 32.5107 37.5497 32.8627C37.9373 33.2089 38.1462 33.6386 38.1581 34.1816Z" fill="#00A995"/>
</svg>
