<svg width="65" height="65" viewBox="0 0 65 65" fill="none" xmlns="http://www.w3.org/2000/svg">
<rect width="65" height="65" rx="10" fill="#00A995" fill-opacity="0.1"/>
<g clip-path="url(#clip0_1649_534)">
<path d="M28.3684 15H16.2821C15.9344 15 15.6526 15.2818 15.6526 15.6295V34.838C15.6526 35.1856 15.9344 35.4675 16.2821 35.4675H28.3683C28.7161 35.4675 28.9978 35.1856 28.9978 34.838V15.6295C28.9979 15.2818 28.7161 15 28.3684 15ZM27.7389 34.2084H16.9116V16.259H27.7388L27.7389 34.2084Z" fill="#00A995"/>
<path d="M28.3684 36.6548H16.2821C15.9344 36.6548 15.6526 36.9366 15.6526 37.2843V49.3707C15.6526 49.7183 15.9344 50.0002 16.2821 50.0002H28.3683C28.7161 50.0002 28.9978 49.7183 28.9978 49.3707V37.2843C28.9979 36.9366 28.7161 36.6548 28.3684 36.6548ZM16.9116 48.7411V46.2923L18.795 44.2203L22.905 48.7412H16.9116V48.7411ZM24.6066 48.7411L22.8225 46.7788L23.5784 45.947L26.1177 48.7412H24.6066V48.7411ZM27.7389 48.6529L24.0445 44.5875C23.9251 44.4562 23.7559 44.3813 23.5785 44.3813C23.4011 44.3813 23.2319 44.4562 23.1126 44.5875L21.9717 45.8428L19.2606 42.8608C19.1413 42.7296 18.9721 42.6548 18.7947 42.6548C18.6175 42.6548 18.4482 42.7296 18.3289 42.8609L16.9114 44.4205V37.9138H27.7388L27.7389 48.6529Z" fill="#00A995"/>
<path d="M42.8468 29.5327H30.7606C30.4129 29.5327 30.1311 29.8146 30.1311 30.1622V49.3707C30.1311 49.7183 30.4129 50.0002 30.7606 50.0002H42.8468C43.1946 50.0002 43.4764 49.7183 43.4764 49.3707V30.1622C43.4764 29.8146 43.1946 29.5327 42.8468 29.5327ZM42.2173 48.7412H31.3901V30.7918H42.2173V48.7412Z" fill="#00A995"/>
<path d="M42.8468 15H30.7606C30.4129 15 30.1311 15.2818 30.1311 15.6295V27.7159C30.1311 28.0635 30.4129 28.3454 30.7606 28.3454H42.8468C43.1946 28.3454 43.4764 28.0635 43.4764 27.7159V15.6295C43.4764 15.2818 43.1946 15 42.8468 15ZM42.2173 27.0863H31.3901V16.259H42.2173V27.0863Z" fill="#00A995"/>
<path d="M39.8881 17.8955H33.7191C33.3714 17.8955 33.0896 18.1774 33.0896 18.525V20.0358C33.0896 20.3835 33.3714 20.6654 33.7191 20.6654C34.0669 20.6654 34.3486 20.3835 34.3486 20.0358V19.1546H36.1741V24.3163H35.5447C35.1969 24.3163 34.9151 24.5981 34.9151 24.9458C34.9151 25.2935 35.1969 25.5753 35.5447 25.5753H38.0626C38.4104 25.5753 38.6921 25.2935 38.6921 24.9458C38.6921 24.5981 38.4104 24.3163 38.0626 24.3163H37.4332V19.1546H39.2586V20.0358C39.2586 20.3834 39.5404 20.6653 39.8881 20.6653C40.2359 20.6653 40.5177 20.3834 40.5177 20.0358V18.525C40.5177 18.1774 40.2359 17.8955 39.8881 17.8955Z" fill="#00A995"/>
<path d="M24.6109 38.729C23.2192 38.729 22.0869 39.8612 22.0869 41.253C22.0869 42.6447 23.2192 43.7769 24.6109 43.7769C26.0026 43.7769 27.1348 42.6447 27.1348 41.253C27.1348 39.8612 26.0026 38.729 24.6109 38.729ZM24.6109 42.5178C23.9135 42.5178 23.346 41.9503 23.346 41.2529C23.346 40.5555 23.9133 39.988 24.6109 39.988C25.3084 39.988 25.8758 40.5555 25.8758 41.2529C25.8758 41.9503 25.3083 42.5178 24.6109 42.5178Z" fill="#00A995"/>
<path d="M25.5987 17.7905H21.0663C20.7185 17.7905 20.4368 18.0724 20.4368 18.42C20.4368 18.7677 20.7185 19.0496 21.0663 19.0496H25.5987C25.9464 19.0496 26.2282 18.7677 26.2282 18.42C26.2282 18.0724 25.9464 17.7905 25.5987 17.7905Z" fill="#00A995"/>
<path d="M25.5986 20.5161H19.0519C18.7041 20.5161 18.4224 20.798 18.4224 21.1456C18.4224 21.4933 18.7041 21.7752 19.0519 21.7752H25.5986C25.9463 21.7752 26.2281 21.4933 26.2281 21.1456C26.2281 20.798 25.9463 20.5161 25.5986 20.5161Z" fill="#00A995"/>
<path d="M25.5986 23.2417H19.0519C18.7041 23.2417 18.4224 23.5235 18.4224 23.8712C18.4224 24.2189 18.7041 24.5007 19.0519 24.5007H25.5986C25.9463 24.5007 26.2281 24.2189 26.2281 23.8712C26.2281 23.5235 25.9463 23.2417 25.5986 23.2417Z" fill="#00A995"/>
<path d="M25.5986 25.9668H19.0519C18.7041 25.9668 18.4224 26.2486 18.4224 26.5963C18.4224 26.944 18.7041 27.2258 19.0519 27.2258H25.5986C25.9463 27.2258 26.2281 26.944 26.2281 26.5963C26.2281 26.2486 25.9463 25.9668 25.5986 25.9668Z" fill="#00A995"/>
<path d="M25.5986 28.6924H19.0519C18.7041 28.6924 18.4224 28.9742 18.4224 29.3219C18.4224 29.6696 18.7041 29.9514 19.0519 29.9514H25.5986C25.9463 29.9514 26.2281 29.6696 26.2281 29.3219C26.2281 28.9742 25.9463 28.6924 25.5986 28.6924Z" fill="#00A995"/>
<path d="M21.8216 31.418H19.0519C18.7041 31.418 18.4224 31.6998 18.4224 32.0475C18.4224 32.3952 18.7041 32.677 19.0519 32.677H21.8216C22.1693 32.677 22.4511 32.3952 22.4511 32.0475C22.4511 31.6998 22.1693 31.418 21.8216 31.418Z" fill="#00A995"/>
<path d="M40.0772 32.3232H35.5448C35.1971 32.3232 34.9153 32.6051 34.9153 32.9528C34.9153 33.3004 35.1971 33.5823 35.5448 33.5823H40.0772C40.4249 33.5823 40.7067 33.3004 40.7067 32.9528C40.7067 32.6051 40.4249 32.3232 40.0772 32.3232Z" fill="#00A995"/>
<path d="M40.0771 35.0488H33.5304C33.1827 35.0488 32.9009 35.3307 32.9009 35.6784C32.9009 36.026 33.1827 36.3079 33.5304 36.3079H40.0771C40.4249 36.3079 40.7066 36.026 40.7066 35.6784C40.7066 35.3307 40.4249 35.0488 40.0771 35.0488Z" fill="#00A995"/>
<path d="M40.0771 37.7739H33.5304C33.1827 37.7739 32.9009 38.0558 32.9009 38.4034C32.9009 38.7511 33.1827 39.033 33.5304 39.033H40.0771C40.4249 39.033 40.7066 38.7511 40.7066 38.4034C40.7066 38.0558 40.4249 37.7739 40.0771 37.7739Z" fill="#00A995"/>
<path d="M40.0771 40.4995H33.5304C33.1827 40.4995 32.9009 40.7814 32.9009 41.129C32.9009 41.4767 33.1827 41.7586 33.5304 41.7586H40.0771C40.4249 41.7586 40.7066 41.4767 40.7066 41.129C40.7066 40.7814 40.4249 40.4995 40.0771 40.4995Z" fill="#00A995"/>
<path d="M40.0771 43.2246H33.5304C33.1827 43.2246 32.9009 43.5065 32.9009 43.8541C32.9009 44.2018 33.1827 44.4837 33.5304 44.4837H40.0771C40.4249 44.4837 40.7066 44.2018 40.7066 43.8541C40.7066 43.5065 40.4249 43.2246 40.0771 43.2246Z" fill="#00A995"/>
<path d="M36.3001 45.9502H33.5304C33.1827 45.9502 32.9009 46.232 32.9009 46.5797C32.9009 46.9274 33.1827 47.2092 33.5304 47.2092H36.3001C36.6479 47.2092 36.9296 46.9274 36.9296 46.5797C36.9296 46.232 36.6479 45.9502 36.3001 45.9502Z" fill="#00A995"/>
<path d="M49.1628 47.2042C48.9168 46.9584 48.5183 46.9584 48.2724 47.2042L47.6261 47.8506V17.1492L48.2724 17.7956C48.3954 17.9185 48.5565 17.9801 48.7176 17.9801C48.8787 17.9801 49.0399 17.9186 49.1628 17.7956C49.4087 17.5498 49.4087 17.1511 49.1628 16.9054L47.4417 15.1844C47.1957 14.9385 46.7972 14.9385 46.5514 15.1844L44.8304 16.9054C44.5845 17.1512 44.5845 17.5499 44.8304 17.7956C45.0763 18.0414 45.4749 18.0414 45.7207 17.7956L46.367 17.1492V47.8506L45.7207 47.2042C45.4747 46.9584 45.0762 46.9584 44.8304 47.2042C44.5845 47.4501 44.5845 47.8487 44.8304 48.0945L46.5514 49.8155C46.6744 49.9384 46.8355 49.9999 46.9966 49.9999C47.1577 49.9999 47.3188 49.9385 47.4418 49.8155L49.1628 48.0945C49.4087 47.8486 49.4087 47.45 49.1628 47.2042Z" fill="#00A995"/>
</g>
<defs>
<clipPath id="clip0_1649_534">
<rect width="35" height="35" fill="white" transform="translate(15 15)"/>
</clipPath>
</defs>
</svg>
