<svg width="65" height="65" viewBox="0 0 65 65" fill="none" xmlns="http://www.w3.org/2000/svg">
<rect width="65" height="65" rx="10" fill="#0049A5" fill-opacity="0.1"/>
<g clip-path="url(#clip0_1649_519)">
<path d="M40.0178 22.519C38.7982 22.519 37.6324 22.7498 36.5513 23.1528V25.1322C37.5427 24.6599 38.6286 24.3619 39.7926 24.3295V25.1212H39.98L38.7723 27.5381H39.5915V32.5027C39.5915 32.5426 39.6242 32.5695 39.6353 32.6063C39.6434 32.6423 39.6283 32.6801 39.6492 32.714L41.2805 35.5388L40.572 35.9484L42.8966 37.4828L42.7294 34.703L42.0208 35.1124L40.4467 32.3873V27.5381H41.2657L40.058 25.1212H40.2393L40.2433 24.3295C41.5664 24.3659 42.803 24.7321 43.9 25.3303L43.5135 25.9975L43.9041 26.2207L44.2938 25.5426C45.3869 26.2156 46.3016 27.1298 46.9751 28.2239L46.2985 28.6163L46.5227 29.002L47.1874 28.6163C47.7853 29.7155 48.151 30.95 48.1908 32.2733H47.3986V32.7216H48.1908C48.151 34.0478 47.7853 35.2834 47.1874 36.3824L46.5227 35.9959L46.3006 36.3845L46.9761 36.7761C46.3006 37.8692 45.3849 38.7839 44.2929 39.4574L43.9023 38.7819L43.5157 39.0032L43.9004 39.6708C42.8014 40.2686 41.5689 40.6363 40.2436 40.6711V39.8809H39.7952V40.6711C38.6314 40.6404 37.5423 40.3422 36.5519 39.868V41.8488C37.6329 42.2514 38.7987 42.4826 40.0184 42.4826C45.5217 42.4826 50.0006 38.0047 50.0006 32.4984C49.9999 26.9965 45.521 22.519 40.0178 22.519Z" fill="#0049A5"/>
<path d="M32.6484 20.5757H17.3855C16.0692 20.5757 15 21.6439 15 22.9602V42.0404C15 43.3567 16.0692 44.4248 17.3855 44.4248H32.6484C33.9657 44.4248 35.0338 43.3567 35.0338 42.0404V22.9602C35.0338 21.6449 33.9657 20.5757 32.6484 20.5757ZM33.5034 42.0413C33.5034 42.5127 33.1199 42.8953 32.6484 42.8953H17.3855C16.9142 42.8953 16.5305 42.5127 16.5305 42.0413V22.9612C16.5305 22.4899 16.9141 22.1072 17.3855 22.1072H32.6484C33.1197 22.1072 33.5034 22.4897 33.5034 22.9612V42.0413Z" fill="#0049A5"/>
<path d="M31.3801 27.0957H18.6538C18.4117 27.0957 18.2159 27.2896 18.2159 27.5331C18.2159 27.7773 18.4107 27.972 18.6538 27.972H31.3801C31.6232 27.972 31.8179 27.7773 31.8179 27.5331C31.8179 27.2894 31.6231 27.0957 31.3801 27.0957Z" fill="#0049A5"/>
<path d="M31.3801 29.0933H18.6538C18.4117 29.0933 18.2159 29.288 18.2159 29.5307C18.2159 29.7728 18.4107 29.9687 18.6538 29.9687H31.3801C31.6232 29.9687 31.8179 29.774 31.8179 29.5307C31.8179 29.2882 31.6231 29.0933 31.3801 29.0933Z" fill="#0049A5"/>
<path d="M31.3801 31.0894H18.6538C18.4117 31.0894 18.2159 31.2852 18.2159 31.5279C18.2159 31.7709 18.4107 31.9658 18.6538 31.9658H31.3801C31.6232 31.9658 31.8179 31.7711 31.8179 31.5279C31.8179 31.2852 31.6231 31.0894 31.3801 31.0894Z" fill="#0049A5"/>
<path d="M26.3512 33.0869H18.6538C18.4117 33.0869 18.2159 33.2831 18.2159 33.5255C18.2159 33.7685 18.4107 33.9638 18.6538 33.9638H26.3502C26.5927 33.9638 26.7876 33.7704 26.7876 33.5255C26.7886 33.2831 26.5927 33.0869 26.3512 33.0869Z" fill="#0049A5"/>
<path d="M24.8421 37.0317H18.6538C18.4117 37.0317 18.2159 37.226 18.2159 37.4691C18.2159 37.7121 18.4107 37.9075 18.6538 37.9075H24.8421C25.0846 37.9075 25.2795 37.7131 25.2795 37.4691C25.2795 37.226 25.0846 37.0317 24.8421 37.0317Z" fill="#0049A5"/>
</g>
<defs>
<clipPath id="clip0_1649_519">
<rect width="35" height="35" fill="white" transform="translate(15 15)"/>
</clipPath>
</defs>
</svg>
