<svg width="65" height="65" viewBox="0 0 65 65" fill="none" xmlns="http://www.w3.org/2000/svg">
<rect width="65" height="65" rx="10" fill="#00A995" fill-opacity="0.1"/>
<g clip-path="url(#clip0_1649_549)">
<path d="M48.25 15H16.75C15.7583 15 15 15.7583 15 16.75V38.3333V43.5833C15 43.9333 15.2333 44.1667 15.5833 44.1667H25.5V43H16.1667V38.9167H25.5V37.75H16.1667V16.75C16.1667 16.4 16.4 16.1667 16.75 16.1667H48.25C48.6 16.1667 48.8333 16.4 48.8333 16.75V37.75H40.0833V38.9167H48.8333V43H40.0833V44.1667H49.4167C49.7667 44.1667 50 43.9333 50 43.5833V38.3333V16.75C50 15.7583 49.2417 15 48.25 15Z" fill="#00A995"/>
<path d="M42.0084 30.1665H44.7501V28.9998H41.9501C41.6584 24.2748 37.8084 20.4832 33.0834 20.2498V17.9165H31.9167V20.3082C27.3084 20.6582 23.6334 24.3915 23.4001 28.9998H19.6667V30.1665H23.3417C23.5751 34.3665 26.6084 37.8665 30.7501 38.6832V41.8332H29.5834C29.2334 41.8332 29.0001 42.0665 29.0001 42.4165V49.9998H30.1667V48.2498H33.0834V47.0832H30.1667V45.3332H33.0834V44.1665H30.1667V42.9998H31.3334H34.2501H35.4167V49.9998H36.5834V42.4165C36.5834 42.0665 36.3501 41.8332 36.0001 41.8332H34.8334V38.6832C38.8584 37.7498 41.7167 34.3082 42.0084 30.1665ZM40.7834 28.9998H39.6168C39.3251 25.5582 36.5251 22.8165 33.0834 22.5832V21.4165C37.1667 21.6498 40.4918 24.9165 40.7834 28.9998ZM31.9167 28.9998H26.8417C27.1334 26.3165 29.2334 24.1582 31.9167 23.8082V28.9998ZM29.0001 30.1665V31.9165H30.1667V30.1665H31.9167V34.2498H33.0834V30.1665H35.4167V31.9165H36.5834V30.1665H38.4501C38.1584 33.0832 35.6501 35.4165 32.6751 35.4165C29.7001 35.4165 27.1917 33.0832 26.9001 30.1665H29.0001ZM33.0834 28.9998V23.7498C35.8834 23.9248 38.2167 26.1998 38.4501 28.9998H33.0834ZM31.9167 21.4748V22.6415C28.5334 22.9915 25.9667 25.6748 25.6751 28.9998H24.5084C24.8001 25.0332 27.9501 21.8248 31.9167 21.4748ZM31.9167 41.8332V38.2165C31.9167 37.9248 31.7417 37.6915 31.4501 37.6332C27.6001 37.0498 24.8001 33.9582 24.5084 30.1665H25.6751C25.9667 33.7248 29.0001 36.5832 32.6167 36.5832C36.2917 36.5832 39.2667 33.7248 39.5584 30.1665H40.7251C40.4917 33.8998 37.7501 36.9915 34.0167 37.6332C33.7251 37.6915 33.5501 37.9248 33.5501 38.2165V41.8332H31.9167Z" fill="#00A995"/>
<path d="M42.4166 17.9165H40.0833V19.0832H42.4166V17.9165Z" fill="#00A995"/>
<path d="M42.4166 20.25H40.0833V21.4167H42.4166V20.25Z" fill="#00A995"/>
<path d="M46.5001 17.9165H44.1667V19.0832H46.5001V17.9165Z" fill="#00A995"/>
<path d="M46.5001 20.25H44.1667V21.4167H46.5001V20.25Z" fill="#00A995"/>
<path d="M46.5001 22.5835H44.1667V23.7502H46.5001V22.5835Z" fill="#00A995"/>
<path d="M46.5001 24.9165H44.1667V26.0832H46.5001V24.9165Z" fill="#00A995"/>
<path d="M24.9166 17.9165H22.5833V19.0832H24.9166V17.9165Z" fill="#00A995"/>
<path d="M24.9166 20.25H22.5833V21.4167H24.9166V20.25Z" fill="#00A995"/>
<path d="M20.8333 17.9165H18.5V19.0832H20.8333V17.9165Z" fill="#00A995"/>
<path d="M20.8333 20.25H18.5V21.4167H20.8333V20.25Z" fill="#00A995"/>
<path d="M20.8333 22.5835H18.5V23.7502H20.8333V22.5835Z" fill="#00A995"/>
<path d="M20.8333 24.9165H18.5V26.0832H20.8333V24.9165Z" fill="#00A995"/>
</g>
<defs>
<clipPath id="clip0_1649_549">
<rect width="35" height="35" fill="white" transform="translate(15 15)"/>
</clipPath>
</defs>
</svg>
