<svg width="65" height="65" viewBox="0 0 65 65" fill="none" xmlns="http://www.w3.org/2000/svg">
<rect width="65" height="65" rx="10" fill="#02B8A3" fill-opacity="0.1"/>
<g clip-path="url(#clip0_1649_510)">
<path d="M49.2327 30.8315C48.9938 30.5148 48.7466 30.1873 48.7072 29.933C48.6645 29.6623 48.8013 29.2647 48.9336 28.8808C49.1261 28.3241 49.3432 27.693 49.148 27.0914C48.9495 26.4784 48.396 26.0917 47.9077 25.7505C47.5795 25.5213 47.241 25.2845 47.1213 25.0505C46.9988 24.8109 47.0059 24.3931 47.0124 23.9895C47.0223 23.3978 47.0332 22.7279 46.6586 22.2127C46.2823 21.6954 45.6392 21.4991 45.0721 21.3263C44.6877 21.2092 44.2895 21.0873 44.102 20.8997C43.9138 20.7116 43.7924 20.3134 43.6754 19.929C43.5026 19.3619 43.3062 18.7188 42.7884 18.3425C42.2738 17.9679 41.6033 17.9783 41.0121 17.9887C40.6085 17.9963 40.1902 18.0023 39.9512 17.8798C39.7171 17.7606 39.4803 17.4216 39.2512 17.0934C38.9105 16.6051 38.5238 16.0522 37.9108 15.8531C37.3087 15.6579 36.6765 15.875 36.1192 16.0664C35.7353 16.1988 35.3366 16.3349 35.067 16.2934C34.8127 16.2534 34.4852 16.0063 34.168 15.7678C33.6911 15.408 33.1497 15 32.5 15C31.8503 15 31.3089 15.408 30.8315 15.7678C30.5148 16.0068 30.1873 16.2534 29.933 16.2934C29.6634 16.3366 29.2652 16.1988 28.8808 16.0664C28.3235 15.8745 27.6924 15.6573 27.0914 15.852C26.4784 16.0511 26.0917 16.604 25.7505 17.0923C25.5213 17.4199 25.2845 17.759 25.0505 17.8782C24.8109 18.0007 24.3926 17.993 23.9895 17.987C23.3978 17.9755 22.7279 17.9657 22.2127 18.3409C21.6954 18.7171 21.4991 19.3602 21.3263 19.9273C21.2092 20.3123 21.0873 20.7099 20.8997 20.898C20.7116 21.0862 20.3134 21.2076 19.9284 21.3252C19.3613 21.498 18.7188 21.6943 18.342 22.2116C17.9673 22.7263 17.9783 23.3967 17.9881 23.9884C17.9947 24.3926 18.0013 24.8098 17.8793 25.0499C17.7601 25.2834 17.421 25.5202 17.0934 25.7494C16.6051 26.0906 16.0522 26.4773 15.8526 27.0903C15.6573 27.6924 15.875 28.3235 16.067 28.8808C16.1993 29.2652 16.3366 29.6623 16.2939 29.933C16.254 30.1873 16.0073 30.5148 15.7684 30.8315C15.408 31.3089 15 31.8503 15 32.5C15 33.1497 15.408 33.6911 15.7678 34.1685C16.0068 34.4852 16.2534 34.8133 16.2934 35.0676L17.374 34.8975C17.292 34.373 16.9611 33.9345 16.6412 33.5101C16.3721 33.153 16.0938 32.7838 16.0938 32.5C16.0938 32.2162 16.3721 31.847 16.6412 31.4899C16.9611 31.0655 17.2914 30.627 17.374 30.1025C17.4588 29.5633 17.2766 29.035 17.1005 28.5242C16.9578 28.1102 16.8102 27.6815 16.8927 27.4283C16.9786 27.1641 17.3554 26.9011 17.7196 26.6462C18.1571 26.3405 18.6099 26.0245 18.8533 25.5476C19.0994 25.0652 19.0906 24.5091 19.0813 23.9709C19.0742 23.5302 19.0671 23.0752 19.2263 22.8559C19.3876 22.6344 19.8245 22.5009 20.2478 22.3719C20.7608 22.2149 21.2918 22.053 21.673 21.6719C22.0541 21.2907 22.216 20.7602 22.3724 20.2473C22.5015 19.8245 22.6344 19.387 22.8564 19.2257C23.0757 19.066 23.5312 19.0731 23.9715 19.0808C24.5096 19.0895 25.0652 19.0988 25.5481 18.8527C26.025 18.6094 26.3411 18.1571 26.6473 17.7191C26.9016 17.3548 27.1652 16.9786 27.4294 16.8927C27.682 16.8096 28.1108 16.9584 28.5248 17.1005C29.0361 17.2766 29.5638 17.4582 30.103 17.374C30.627 17.292 31.0661 16.9611 31.4905 16.6412C31.847 16.3721 32.2162 16.0938 32.5 16.0938C32.7838 16.0938 33.153 16.3721 33.5101 16.6412C33.9345 16.9611 34.373 17.2914 34.8975 17.374C35.4356 17.4571 35.965 17.2766 36.4758 17.1005C36.8903 16.9578 37.318 16.8096 37.5723 16.8927C37.8359 16.9786 38.0995 17.3548 38.3543 17.7191C38.66 18.1566 38.9766 18.6094 39.453 18.8527C39.9353 19.0988 40.4937 19.0912 41.0296 19.0808C41.4704 19.0742 41.9259 19.066 42.1452 19.2257C42.3667 19.387 42.4996 19.824 42.6292 20.2473C42.7856 20.7602 42.9475 21.2913 43.3287 21.6724C43.7093 22.0536 44.2403 22.2155 44.7533 22.3719C45.1755 22.5009 45.613 22.6344 45.7743 22.8559C45.934 23.0752 45.9263 23.5302 45.9192 23.9709C45.9105 24.5091 45.9017 25.0652 46.1478 25.5476C46.3912 26.0245 46.8434 26.3405 47.2809 26.6462C47.6452 26.9011 48.0214 27.1641 48.1078 27.4288C48.1898 27.682 48.0427 28.1102 47.9 28.5242C47.7239 29.035 47.5423 29.5633 47.6266 30.1025C47.7091 30.6264 48.04 31.0655 48.3594 31.4894C48.6279 31.847 48.9062 32.2162 48.9062 32.5C48.9062 32.7838 48.6279 33.153 48.3588 33.5106C48.0395 33.9345 47.7091 34.373 47.626 34.8975L48.7072 35.0676C48.7466 34.8133 48.9938 34.4857 49.2327 34.1685C49.592 33.6911 50 33.1497 50 32.5C50 31.8503 49.592 31.3089 49.2327 30.8315ZM44.7522 42.6287C44.2392 42.7851 43.7082 42.947 43.3276 43.3281C42.9464 43.7087 42.7845 44.2398 42.6276 44.7527C42.4991 45.1755 42.3656 45.6124 42.1436 45.7738C41.9248 45.9329 41.4666 45.9252 41.0291 45.9187C40.4909 45.9099 39.9353 45.9012 39.4519 46.1473C38.9755 46.3906 38.6595 46.8429 38.3537 47.2804C38.0989 47.6446 37.8359 48.0209 37.5712 48.1073C37.3174 48.1904 36.8898 48.0427 36.4752 47.8995C35.9645 47.7239 35.4356 47.5451 34.897 47.626C34.3725 47.7086 33.9339 48.0395 33.5101 48.3588C33.153 48.6279 32.7838 48.9062 32.5 48.9062C32.2162 48.9062 31.847 48.6279 31.4894 48.3588C31.0655 48.0395 30.6264 47.7091 30.1025 47.626C29.5649 47.5451 29.035 47.7239 28.5242 47.8995C28.1102 48.0422 27.6826 48.1904 27.4283 48.1073C27.1641 48.0214 26.9005 47.6446 26.6462 47.2804C26.34 46.8423 26.0239 46.3901 25.5476 46.1467C25.0652 45.9006 24.5085 45.9094 23.9715 45.9187C23.5307 45.9241 23.0752 45.9334 22.8559 45.7732C22.6344 45.6119 22.5009 45.1749 22.3719 44.7522C22.2149 44.2392 22.053 43.7082 21.6719 43.3276C21.2907 42.9464 20.7602 42.7845 20.2467 42.6276C19.824 42.4991 19.3865 42.3656 19.2257 42.1436L18.3414 42.7878C18.7177 43.3046 19.3608 43.5009 19.9273 43.6737C20.3123 43.7913 20.7105 43.9127 20.8986 44.1009C21.0867 44.289 21.2081 44.6866 21.3257 45.0716C21.4985 45.6387 21.6948 46.2812 22.2122 46.6575C22.7268 47.0332 23.3973 47.0206 23.9895 47.0113C24.3926 47.007 24.8109 46.9982 25.0505 47.1202C25.284 47.2394 25.5208 47.5784 25.7499 47.9066C26.0912 48.3949 26.4778 48.9478 27.0909 49.1474C27.6919 49.341 28.3235 49.1255 28.8808 48.933C29.2652 48.8013 29.6634 48.6602 29.933 48.7066C30.1873 48.746 30.5148 48.9932 30.8315 49.2322C31.3089 49.592 31.8503 50 32.5 50C33.1497 50 33.6911 49.592 34.1685 49.2327C34.4852 48.9938 34.8133 48.7466 35.0676 48.7072C35.3345 48.6602 35.7353 48.8013 36.1198 48.9336C36.6776 49.1261 37.3092 49.3438 37.9091 49.148C38.5222 48.9495 38.9088 48.3955 39.2501 47.9071C39.4792 47.5795 39.7166 47.2405 39.9495 47.1213C40.1891 46.9982 40.6058 47.0048 41.0105 47.0124C41.5984 47.0217 42.2716 47.0332 42.7873 46.6586C43.3041 46.2823 43.5004 45.6398 43.6732 45.0727C43.7908 44.6882 43.9122 44.2895 44.1003 44.102C44.2884 43.9138 44.686 43.7924 45.0705 43.6754C45.6376 43.5026 46.2807 43.3057 46.657 42.7884L45.7727 42.1452C45.6124 42.3662 45.1749 42.4991 44.7522 42.6287Z" fill="#00A995"/>
<path d="M19.375 40.1562V39.0625C19.375 38.7601 19.13 38.5156 18.8281 38.5156H17.7344V39.6094H18.2812V40.1562C18.2812 40.4581 18.0357 40.7031 17.7344 40.7031C17.433 40.7031 17.1875 40.4581 17.1875 40.1562V36.875C17.1875 36.5731 17.433 36.3281 17.7344 36.3281C18.0357 36.3281 18.2812 36.5731 18.2812 36.875V37.4219H19.375V36.875C19.375 35.9705 18.6389 35.2344 17.7344 35.2344C16.8298 35.2344 16.0938 35.9705 16.0938 36.875V40.1562C16.0938 41.0608 16.8298 41.7969 17.7344 41.7969C18.6389 41.7969 19.375 41.0608 19.375 40.1562ZM19.9219 35.2344V40.1562C19.9219 41.0608 20.658 41.7969 21.5625 41.7969C22.467 41.7969 23.2031 41.0608 23.2031 40.1562V35.2344H22.1094V40.1562C22.1094 40.4581 21.8638 40.7031 21.5625 40.7031C21.2612 40.7031 21.0156 40.4581 21.0156 40.1562V35.2344H19.9219ZM23.75 36.875V41.7969H24.8438V40.7031H25.9375V41.7969H27.0312V36.875C27.0312 35.9705 26.2952 35.2344 25.3906 35.2344C24.4861 35.2344 23.75 35.9705 23.75 36.875ZM25.9375 36.875V39.6094H24.8438V36.875C24.8438 36.5731 25.0893 36.3281 25.3906 36.3281C25.692 36.3281 25.9375 36.5731 25.9375 36.875ZM31.4062 36.875V41.7969H32.5V40.7031H33.5938V41.7969H34.6875V36.875C34.6875 35.9705 33.9514 35.2344 33.0469 35.2344C32.1423 35.2344 31.4062 35.9705 31.4062 36.875ZM33.0469 36.3281C33.3487 36.3281 33.5938 36.5731 33.5938 36.875V39.6094H32.5V36.875C32.5 36.5731 32.7455 36.3281 33.0469 36.3281ZM27.5781 35.7812V38.5134C27.5781 38.5151 27.5781 38.5162 27.5781 38.5173V41.7969H28.6719V40.0748L29.8854 41.5918C29.9893 41.7214 30.1462 41.7969 30.3125 41.7969H30.8594V40.7031H30.575L29.2439 39.039C30.1583 38.8952 30.8594 38.1022 30.8594 37.1484C30.8594 36.093 30.0008 35.2344 28.9453 35.2344H28.125C27.8231 35.2344 27.5781 35.4788 27.5781 35.7812ZM28.6719 36.3281H28.9453C29.3976 36.3281 29.7656 36.6962 29.7656 37.1484C29.7656 37.6007 29.3976 37.9688 28.9453 37.9688H28.6719V36.3281ZM37.4219 38.4106L36.2893 35.5784C36.1914 35.3339 35.9311 35.1977 35.6779 35.2442C35.4203 35.2934 35.2344 35.5193 35.2344 35.7812V41.7969H36.3281V38.6206L37.4607 41.4529C37.5455 41.664 37.7489 41.7969 37.9682 41.7969C38.0027 41.7969 38.0377 41.7936 38.0721 41.787C38.3297 41.7378 38.5156 41.512 38.5156 41.25V35.2344H37.4219V38.4106ZM41.25 36.3281H42.3438V35.2344H39.0625V36.3281H40.1562V41.7969H41.25V36.3281ZM45.625 36.3281V35.2344H43.4375C43.1351 35.2344 42.8906 35.4788 42.8906 35.7812V41.25C42.8906 41.5524 43.1351 41.7969 43.4375 41.7969H45.625V40.7031H43.9844V39.0625H45.625V37.9688H43.9844V36.3281H45.625ZM46.1719 35.7812V41.25C46.1719 41.5524 46.4163 41.7969 46.7188 41.7969H48.9062V40.7031H47.2656V39.0625H48.9062V37.9688H47.2656V36.3281H48.9062V35.2344H46.7188C46.4163 35.2344 46.1719 35.4788 46.1719 35.7812Z" fill="#00A995"/>
<path d="M46.1719 32.5C46.1719 24.9613 40.0387 18.8281 32.5 18.8281C24.9613 18.8281 18.8281 24.9613 18.8281 32.5C18.8281 33.0507 18.8653 33.6255 18.938 34.2084L20.023 34.0728C19.9558 33.5347 19.9219 33.0053 19.9219 32.5C19.9219 25.5645 25.5645 19.9219 32.5 19.9219C39.436 19.9219 45.0781 25.5645 45.0781 32.5C45.0781 33.0053 45.0442 33.5347 44.9764 34.0728L46.0614 34.2084C46.1352 33.6255 46.1719 33.0507 46.1719 32.5ZM40.8491 43.3232L40.1803 42.458C37.9605 44.172 35.3055 45.0781 32.5 45.0781C29.6951 45.0781 27.0395 44.172 24.8202 42.458L24.1514 43.3232C26.5642 45.187 29.4506 46.1719 32.5 46.1719C35.5494 46.1719 38.4363 45.187 40.8491 43.3232Z" fill="#00A995"/>
<path d="M27.0312 26.4844H25.9375V27.5781H26.4844V33.0469H27.5781V27.0312C27.5781 26.7294 27.3331 26.4844 27.0312 26.4844ZM30.0391 26.4844C28.9836 26.4844 28.125 27.343 28.125 28.3984V31.1328C28.125 32.1883 28.9836 33.0469 30.0391 33.0469C31.0945 33.0469 31.9531 32.1883 31.9531 31.1328V28.3984C31.9531 27.343 31.0945 26.4844 30.0391 26.4844ZM30.8594 31.1328C30.8594 31.5851 30.4913 31.9531 30.0391 31.9531C29.5868 31.9531 29.2188 31.5851 29.2188 31.1328V28.3984C29.2188 27.9462 29.5868 27.5781 30.0391 27.5781C30.4913 27.5781 30.8594 27.9462 30.8594 28.3984V31.1328ZM34.4141 26.4844C33.3586 26.4844 32.5 27.343 32.5 28.3984V31.1328C32.5 32.1883 33.3586 33.0469 34.4141 33.0469C35.4695 33.0469 36.3281 32.1883 36.3281 31.1328V28.3984C36.3281 27.343 35.4695 26.4844 34.4141 26.4844ZM35.2344 31.1328C35.2344 31.5851 34.8663 31.9531 34.4141 31.9531C33.9618 31.9531 33.5938 31.5851 33.5938 31.1328V28.3984C33.5938 27.9462 33.9618 27.5781 34.4141 27.5781C34.8663 27.5781 35.2344 27.9462 35.2344 28.3984V31.1328Z" fill="#00A995"/>
<path d="M38.0256 32.2554L40.2131 27.8804L41.1915 28.3693L39.004 32.7443L38.0256 32.2554Z" fill="#00A995"/>
<path d="M38.5156 28.6719H37.4219V29.7656H38.5156V28.6719Z" fill="#00A995"/>
<path d="M41.7969 30.8594H40.7031V31.9531H41.7969V30.8594Z" fill="#00A995"/>
</g>
<defs>
<clipPath id="clip0_1649_510">
<rect width="35" height="35" fill="white" transform="translate(15 15)"/>
</clipPath>
</defs>
</svg>
